<svg width="38" height="37" viewBox="0 0 38 37" fill="none" xmlns="http://www.w3.org/2000/svg">
<ellipse cx="18.6767" cy="18.4268" rx="18.6767" ry="18.4268" fill="black"/>
<path d="M25.8836 15.9789C25.8951 16.1454 25.8951 16.312 25.8951 16.4786C25.8951 21.5584 22.1537 27.4116 15.3155 27.4116C13.2088 27.4116 11.2517 26.7811 9.60547 25.6866C9.9048 25.7223 10.1926 25.7342 10.5034 25.7342C12.2417 25.7342 13.8419 25.1275 15.1198 24.0925C13.4851 24.0568 12.1151 22.9504 11.6431 21.4276C11.8734 21.4633 12.1036 21.4871 12.3454 21.4871C12.6792 21.4871 13.0131 21.4395 13.3239 21.3562C11.6201 20.9993 10.3422 19.4527 10.3422 17.5849V17.5374C10.8372 17.8229 11.4129 18.0013 12.023 18.0251C11.0214 17.3351 10.3652 16.1573 10.3652 14.8249C10.3652 14.1111 10.5494 13.4568 10.8718 12.8857C12.7022 15.2175 15.4536 16.7402 18.5388 16.9068C18.4813 16.6213 18.4467 16.3239 18.4467 16.0265C18.4467 13.9088 20.1045 12.1838 22.1652 12.1838C23.2358 12.1838 24.2028 12.6478 24.882 13.3973C25.7224 13.2308 26.5282 12.9095 27.242 12.4694C26.9657 13.3616 26.3786 14.1111 25.6073 14.587C26.3556 14.5037 27.0809 14.2895 27.7485 13.9922C27.2421 14.7535 26.6089 15.4316 25.8836 15.9789V15.9789Z" fill="white"/>
</svg>
